{"title":"Brasil Visto de Cima HDTV 720p PT-BR 3ª Temporada","uid":13116655,"size":27466320347,"categoryP":"video","categoryS":"hd___tv_shows","magnet":"?xt=urn:btih:fcece99f40ef4cbf225a302dd6c88f5928b3da6c&amp;dn=Brasil+Visto+de+Cima+HDTV+720p+PT-BR+3%26ordf%3B+Temporada&amp;tr=udp%3A%2F%2Ftracker.leechers-paradise.org%3A6969&amp;tr=udp%3A%2F%2Fzer0day.ch%3A1337&amp;tr=udp%3A%2F%2Fopen.demonii.com%3A1337&amp;tr=udp%3A%2F%2Ftracker.coppersurfer.tk%3A6969&amp;tr=udp%3A%2F%2Fexodus.desync.com%3A6969","seeders":1,"leechers":0,"uploader":null,"files":13,"time":1451599062,"description":"1ª Temporada &gt; https://thepiratebay.la/torrent/11876288/\r\n2ª Temporada &gt; https://thepiratebay.se/torrent/11988862/\r\n\r\nDo Oiapoque ao Chuí, o que não faltam no Brasil são paisagens belíssimas e cheias de contradições para serem admiradas. A bordo de um helicóptero, a série &quot;Brasil Visto de Cima&quot; revela algumas delas. A atração capta imagens das paisagens mais extraordinárias, dos lugares mais curiosos e das regiões mais inquietantes e surpreendentes.\r\n\r\nEpisódio 1 - Jericoacara e a Princesa do Norte - CE\r\nEpisódio 2 - Porta do Sol - PB\r\nEpisódio 3 - Caribe Brasileiro - AL\r\nEpisódio 4 - Costa Dourada - Litoral Sul PE\r\nEpisódio 5 - Capital da Qualidade de Vida - SE\r\nEpisódio 6 - Costa Dourada - Litoral Sul PE 2\r\nEpisódio 7 - Rio São Francisco - BA\r\nEpisódio 8 - Litoral Norte da BA e divisa com Sergipe\r\nEpisódio 9 - Vale do São Francisco\r\nEpisódio 10 - Costa do Sol - RN\r\nEpisódio 11 - Do litoral ao Agreste Pernambucano\r\nEpisódio 12 - Costa Branca - RN\r\nEpisódio 13 - Veneza Brasileira - Recife PE\r\n\r\n+++++++++++++++++++++++++++++++++++++++++++++++\r\n\r\nideo\r\nID                             : 1\r\nFormat                         : AVC\r\nFormat/Info                    : Advanced Video Codec\r\nFormat profile                 :   \r\nFormat settings, CABAC         : Yes\r\nFormat settings, ReFrames      : 4 frames\r\nCodec ID                       : V_MPEG4/ISO/AVC\r\nDuration                       : 25mn 1s\r\nBit rate                       : 10.3 Mbps\r\nWidth                          : 1 280 pixels\r\nHeight                         : 720 pixels\r\nDisplay aspect ratio           : 16:9\r\nFrame rate mode                : Constant\r\nFrame rate                     : 59.880 fps\r\nOriginal frame rate            : 59.940 fps\r\nColor space                    : YUV\r\nChroma subsampling             : 4:2:0\r\nBit depth                      : 8 bits\r\nScan type                      : Progressive\r\nBits/(Pixel*Frame)             : 0.186\r\nStream size                    : 1.76 GiB (94%)\r\n\r\n\r\nAudio\r\nID                             : 2\r\nFormat                         : AC-3\r\nFormat/Info                    : Audio Coding 3\r\nMode extension                 : CM (complete main)\r\nFormat settings, Endianness    : Big\r\nCodec ID                       : A_AC3\r\nDuration                       : 25mn 1s\r\nBit rate mode                  : Constant\r\nBit rate                       : 384 Kbps\r\nChannel(s)                     : 2 channels\r\nChannel positions              : Front: L R\r\nSampling rate                  : 48.0 KHz\r\nBit depth                      : 16 bits\r\nCompression mode               : Lossy\r\nDelay relative to video        : 13ms\r\nStream size                    : 68.7 MiB (4%)\r\nLanguage                       : English\r\nDefault                        : Yes\r\nForced                         : No","torrent":{"xt":"urn:btih:fcece99f40ef4cbf225a302dd6c88f5928b3da6c","amp;dn":"Brasil+Visto+de+Cima+HDTV+720p+PT-BR+3%26ordf%3B+Temporada","amp;tr":["udp%3A%2F%2Ftracker.leechers-paradise.org%3A6969","udp%3A%2F%2Fzer0day.ch%3A1337","udp%3A%2F%2Fopen.demonii.com%3A1337","udp%3A%2F%2Ftracker.coppersurfer.tk%3A6969","udp%3A%2F%2Fexodus.desync.com%3A6969"],"infoHash":"fcece99f40ef4cbf225a302dd6c88f5928b3da6c","infoHashBuffer":{"type":"Buffer","data":[252,236,233,159,64,239,76,191,34,90,48,45,214,200,143,89,40,179,218,108]},"announce":[],"urlList":[]}}